HIERARCHY
ROOT hip
{
  OFFSET -1.62966 111.322 -0.413876
  CHANNELS 6 Xposition Yposition Zposition Zrotation Xrotation Yrotation
  JOINT abdomen
  {
    OFFSET 0 -1.186 -1.50178
    CHANNELS 6 Xposition Yposition Zposition Zrotation Xrotation Yrotation
    JOINT abdomen2
    {
      OFFSET 0 9.964 0.21338
      CHANNELS 6 Xposition Yposition Zposition Zrotation Xrotation Yrotation
      JOINT chest
      {
        OFFSET 0 13.134 -3.25729
        CHANNELS 6 Xposition Yposition Zposition Zrotation Xrotation Yrotation
        JOINT neck
        {
          OFFSET 0 21.686 -1.69049
          CHANNELS 6 Xposition Yposition Zposition Zrotation Xrotation Yrotation
          JOINT head
          {
            OFFSET 0 11.838 -0.12368
            CHANNELS 6 Xposition Yposition Zposition Zrotation Xrotation Yrotation
            End Site
            {
              OFFSET 0 6.717 2.38717
            }
          }
        }
        JOINT lCollar
        {
          OFFSET 1.70688 20.075 5.0056
          CHANNELS 6 Xposition Yposition Zposition Zrotation Xrotation Yrotation
          JOINT lShldr
          {
            OFFSET 13.6458 -0.047012 -4.84902
            CHANNELS 6 Xposition Yposition Zposition Zrotation Xrotation Yrotation
            JOINT lForeArm
            {
              OFFSET 28.3255 -0.975903 2.28883
              CHANNELS 6 Xposition Yposition Zposition Zrotation Xrotation Yrotation
              JOINT lHand
              {
                OFFSET 22.1583 -0.530035 10.8316
                CHANNELS 6 Xposition Yposition Zposition Zrotation Xrotation Yrotation
                JOINT lThumb1
                {
                  OFFSET 0.785995 0.111999 2.58168
                  CHANNELS 6 Xposition Yposition Zposition Zrotation Xrotation Yrotation
                  JOINT lThumb2
                  {
                    OFFSET 0.3601 -0.878005 4.2331
                    CHANNELS 6 Xposition Yposition Zposition Zrotation Xrotation Yrotation
                    End Site
                    {
                      OFFSET 1.81271 -1.21601 2.2227
                    }
                  }
                }
                JOINT lCarpal1
                {
                  OFFSET 0.9571 1.114 1.76948
                  CHANNELS 6 Xposition Yposition Zposition Zrotation Xrotation Yrotation
                  JOINT lIndex1
                  {
                    OFFSET 4.1246 0.487 4.1451
                    CHANNELS 6 Xposition Yposition Zposition Zrotation Xrotation Yrotation
                    JOINT lIndex2
                    {
                      OFFSET 3.40521 -1.45401 2.7682
                      CHANNELS 6 Xposition Yposition Zposition Zrotation Xrotation Yrotation
                      End Site
                      {
                        OFFSET 1.4531 -1.795 1.2713
                      }
                    }
                  }
                  JOINT lMid1
                  {
                    OFFSET 5.6954 0.209991 2.1184
                    CHANNELS 6 Xposition Yposition Zposition Zrotation Xrotation Yrotation
                    JOINT lMid2
                    {
                      OFFSET 3.9766 -1.53999 2.3863
                      CHANNELS 6 Xposition Yposition Zposition Zrotation Xrotation Yrotation
                      End Site
                      {
                        OFFSET 1.4042 -1.926 1.125
                      }
                    }
                  }
                }
                JOINT lCarpal2
                {
                  OFFSET 2.09559 0.65999 -0.38939
                  CHANNELS 6 Xposition Yposition Zposition Zrotation Xrotation Yrotation
                  JOINT lRing1
                  {
                    OFFSET 5.0395 -0.089997 2.49707
                    CHANNELS 6 Xposition Yposition Zposition Zrotation Xrotation Yrotation
                    JOINT lRing2
                    {
                      OFFSET 3.7921 -1.552 1.4806
                      CHANNELS 6 Xposition Yposition Zposition Zrotation Xrotation Yrotation
                      End Site
                      {
                        OFFSET 1.4655 -1.808 0.9609
                      }
                    }
                  }
                  JOINT lPinky1
                  {
                    OFFSET 4.9141 -1.269 0.35915
                    CHANNELS 6 Xposition Yposition Zposition Zrotation Xrotation Yrotation
                    JOINT lPinky2
                    {
                      OFFSET 3.1477 -1.685 0.84623
                      CHANNELS 6 Xposition Yposition Zposition Zrotation Xrotation Yrotation
                      End Site
                      {
                        OFFSET 0.805505 -1.58499 0.79549
                      }
                    }
                  }
                }
              }
            }
          }
        }
        JOINT rCollar
        {
          OFFSET -1.70688 20.075 5.0056
          CHANNELS 6 Xposition Yposition Zposition Zrotation Xrotation Yrotation
          JOINT rShldr
          {
            OFFSET -13.6458 -0.047012 -4.84902
            CHANNELS 6 Xposition Yposition Zposition Zrotation Xrotation Yrotation
            JOINT rForeArm
            {
              OFFSET -28.3255 -0.975903 2.28883
              CHANNELS 6 Xposition Yposition Zposition Zrotation Xrotation Yrotation
              JOINT rHand
              {
                OFFSET -22.1583 -0.530036 10.8316
                CHANNELS 6 Xposition Yposition Zposition Zrotation Xrotation Yrotation
                JOINT rThumb1
                {
                  OFFSET -0.785995 0.111999 2.58168
                  CHANNELS 6 Xposition Yposition Zposition Zrotation Xrotation Yrotation
                  JOINT rThumb2
                  {
                    OFFSET -0.3601 -0.878005 4.2331
                    CHANNELS 6 Xposition Yposition Zposition Zrotation Xrotation Yrotation
                    End Site
                    {
                      OFFSET -1.81271 -1.21601 2.2227
                    }
                  }
                }
                JOINT rCarpal1
                {
                  OFFSET -0.9571 1.114 1.76948
                  CHANNELS 6 Xposition Yposition Zposition Zrotation Xrotation Yrotation
                  JOINT rIndex1
                  {
                    OFFSET -4.1246 0.487 4.1451
                    CHANNELS 6 Xposition Yposition Zposition Zrotation Xrotation Yrotation
                    JOINT rIndex2
                    {
                      OFFSET -3.40521 -1.45401 2.7682
                      CHANNELS 6 Xposition Yposition Zposition Zrotation Xrotation Yrotation
                      End Site
                      {
                        OFFSET -1.4531 -1.795 1.2713
                      }
                    }
                  }
                  JOINT rMid1
                  {
                    OFFSET -5.6954 0.209991 2.1184
                    CHANNELS 6 Xposition Yposition Zposition Zrotation Xrotation Yrotation
                    JOINT rMid2
                    {
                      OFFSET -3.9766 -1.53999 2.3863
                      CHANNELS 6 Xposition Yposition Zposition Zrotation Xrotation Yrotation
                      End Site
                      {
                        OFFSET -1.4042 -1.926 1.125
                      }
                    }
                  }
                }
                JOINT rCarpal2
                {
                  OFFSET -2.09559 0.65999 -0.38939
                  CHANNELS 6 Xposition Yposition Zposition Zrotation Xrotation Yrotation
                  JOINT rRing1
                  {
                    OFFSET -5.0395 -0.089997 2.49707
                    CHANNELS 6 Xposition Yposition Zposition Zrotation Xrotation Yrotation
                    JOINT rRing2
                    {
                      OFFSET -3.7921 -1.552 1.4806
                      CHANNELS 6 Xposition Yposition Zposition Zrotation Xrotation Yrotation
                      End Site
                      {
                        OFFSET -1.4655 -1.808 0.9609
                      }
                    }
                  }
                  JOINT rPinky1
                  {
                    OFFSET -4.9141 -1.269 0.35915
                    CHANNELS 6 Xposition Yposition Zposition Zrotation Xrotation Yrotation
                    JOINT rPinky2
                    {
                      OFFSET -3.1477 -1.685 0.84623
                      CHANNELS 6 Xposition Yposition Zposition Zrotation Xrotation Yrotation
                      End Site
                      {
                        OFFSET -0.805505 -1.58499 0.79549
                      }
                    }
                  }
                }
              }
            }
          }
        }
      }
    }
  }
  JOINT lThigh
  {
    OFFSET 8.367 -8.2066 0.59823
    CHANNELS 6 Xposition Yposition Zposition Zrotation Xrotation Yrotation
    JOINT lShin
    {
      OFFSET 2.19232 -43.463 -0.493181
      CHANNELS 6 Xposition Yposition Zposition Zrotation Xrotation Yrotation
      JOINT lFoot
      {
        OFFSET 0.733257 -45.8593 -2.64513
        CHANNELS 6 Xposition Yposition Zposition Zrotation Xrotation Yrotation
        End Site
        {
          OFFSET 2.6618 -4.26993 12.3931
        }
      }
    }
  }
  JOINT rThigh
  {
    OFFSET -8.367 -8.2066 0.59823
    CHANNELS 6 Xposition Yposition Zposition Zrotation Xrotation Yrotation
    JOINT rShin
    {
      OFFSET -2.19233 -43.463 -0.493108
      CHANNELS 6 Xposition Yposition Zposition Zrotation Xrotation Yrotation
      JOINT rFoot
      {
        OFFSET -0.733256 -45.8593 -2.64514
        CHANNELS 6 Xposition Yposition Zposition Zrotation Xrotation Yrotation
        End Site
        {
          OFFSET -2.6618 -4.26993 12.3931
        }
      }
    }
  }
}
MOTION
Frames:	4
Frame Time:	0.0333333
-0.154996 114.973 -1.76083 0.942702 -2.39369 -3.83654 0 -1.186 -1.50178 -0.443462 1.70283 0.637943 2.22045e-016 9.964 0.21338 -0.906474 3.40057 1.28991 0 13.134 -3.25729 -0.906471 3.40056 1.28991 4.44089e-016 21.686 -1.69049 11.3661 53.1183 -5.01926 0 11.838 -0.12368 -2.46054 -2.61123 3.8436 1.70688 20.075 5.0056 -30.5022 2.55839 -3.48914 13.6458 -0.047012 -4.84902 -40.2187 27.0415 -11.9033 28.3255 -0.975903 2.28883 -8.03216 -16.1458 15.1034 22.1583 -0.530035 10.8316 -8.08819 4.40758 -3.86233 0.785995 0.111999 2.58168 -7.95139e-016 -3.18055e-015 3.18055e-015 0.3601 -0.878005 4.2331 -7.95139e-016 6.36111e-015 3.18055e-015 0.9571 1.114 1.76948 -7.95139e-016 -3.18055e-015 3.18055e-015 4.1246 0.487 4.1451 -7.95139e-016 6.36111e-015 3.18055e-015 3.40521 -1.45401 2.7682 1.59028e-015 0 1.59028e-015 5.6954 0.209991 2.1184 -7.95139e-016 6.36111e-015 3.18055e-015 3.9766 -1.53999 2.3863 1.59028e-015 0 1.59028e-015 2.09559 0.65999 -0.38939 -7.95139e-016 -3.18055e-015 3.18055e-015 5.0395 -0.089997 2.49707 -7.95139e-016 6.36111e-015 3.18055e-015 3.7921 -1.552 1.4806 1.59028e-015 0 1.59028e-015 4.9141 -1.269 0.35915 -7.95139e-016 6.36111e-015 3.18055e-015 3.1477 -1.685 0.84623 1.59028e-015 0 1.59028e-015 -1.70688 20.075 5.0056 20.9647 3.68909 9.91397 -13.6458 -0.047012 -4.84902 53.5539 16.5261 3.58989 -28.3255 -0.975903 2.28883 2.88902 0.148203 -8.7489 -22.1583 -0.530036 10.8316 2.14201 1.17107 4.54002 -0.785995 0.111999 2.58168 -1.59028e-015 3.18055e-015 7.95139e-016 -0.3601 -0.878005 4.2331 -4.77083e-015 6.36111e-015 -7.95139e-016 -0.9571 1.114 1.76948 -1.59028e-015 3.18055e-015 7.95139e-016 -4.1246 0.487 4.1451 -4.77083e-015 6.36111e-015 -7.95139e-016 -3.40521 -1.45401 2.7682 -3.18055e-015 -3.18055e-015 1.59028e-015 -5.6954 0.209991 2.1184 -4.77083e-015 6.36111e-015 -7.95139e-016 -3.9766 -1.53999 2.3863 -3.18055e-015 -3.18055e-015 1.59028e-015 -2.09559 0.65999 -0.38939 -1.59028e-015 3.18055e-015 7.95139e-016 -5.0395 -0.089997 2.49707 -4.77083e-015 6.36111e-015 -7.95139e-016 -3.7921 -1.552 1.4806 -3.18055e-015 -3.18055e-015 1.59028e-015 -4.9141 -1.269 0.35915 -4.77083e-015 6.36111e-015 -7.95139e-016 -3.1477 -1.685 0.84623 -3.18055e-015 -3.18055e-015 1.59028e-015 8.367 -8.2066 0.59823 -2.07823 -1.24104 6.96752 2.19232 -43.463 -0.493181 -1.03481 8.80158 -0.672985 0.733257 -45.8593 -2.64513 4.99078 -6.40382 0.242223 -8.367 -8.2066 0.59823 -0.196147 -0.798285 -7.65355 -2.19233 -43.463 -0.493108 0.854038 6.19777 0.737076 -0.733256 -45.8593 -2.64514 -15.1138 -0.785921 0.00874517 
-0.172968 115.003 -1.77916 0.994569 -2.39536 -3.80065 -4.44089e-016 -1.186 -1.50178 -0.46859 1.74221 0.632158 0 9.964 0.21338 -0.95706 3.47909 1.27944 0 13.134 -3.25729 -0.957059 3.47909 1.27944 0 21.686 -1.69049 11.0266 54.0895 -4.80178 0 11.838 -0.12368 -1.92296 -1.59216 3.79886 1.70688 20.075 5.0056 -29.3962 2.47316 -3.49095 13.6458 -0.047012 -4.84902 -41.6506 25.9595 -11.7815 28.3255 -0.975903 2.28883 -7.79323 -15.4943 15.8128 22.1583 -0.530035 10.8316 -7.97013 4.36191 -4.06717 0.785995 0.111999 2.58168 -1.59028e-015 0 1.59028e-015 0.3601 -0.878005 4.2331 -7.95139e-016 0 1.59028e-015 0.9571 1.114 1.76948 -1.59028e-015 0 1.59028e-015 4.1246 0.487 4.1451 -7.95139e-016 0 1.59028e-015 3.40521 -1.45401 2.7682 -3.53113e-031 6.36111e-015 3.18055e-015 5.6954 0.209991 2.1184 -7.95139e-016 0 1.59028e-015 3.9766 -1.53999 2.3863 -3.53113e-031 6.36111e-015 3.18055e-015 2.09559 0.65999 -0.38939 -1.59028e-015 0 1.59028e-015 5.0395 -0.089997 2.49707 -7.95139e-016 0 1.59028e-015 3.7921 -1.552 1.4806 -3.53113e-031 6.36111e-015 3.18055e-015 4.9141 -1.269 0.35915 -7.95139e-016 0 1.59028e-015 3.1477 -1.685 0.84623 -3.53113e-031 6.36111e-015 3.18055e-015 -1.70688 20.075 5.0056 20.8557 3.65101 9.85152 -13.6458 -0.047012 -4.84902 53.8415 16.4265 3.43414 -28.3255 -0.975903 2.28883 3.08683 -0.374271 -8.85619 -22.1583 -0.530036 10.8316 2.13237 1.15705 4.18929 -0.785995 0.111999 2.58168 1.19271e-015 -3.18055e-015 7.95139e-016 -0.3601 -0.878005 4.2331 -3.97569e-016 0 -7.95139e-016 -0.9571 1.114 1.76948 1.19271e-015 -3.18055e-015 7.95139e-016 -4.1246 0.487 4.1451 -3.97569e-016 0 -7.95139e-016 -3.40521 -1.45401 2.7682 -7.95139e-016 0 7.95139e-016 -5.6954 0.209991 2.1184 -3.97569e-016 0 -7.95139e-016 -3.9766 -1.53999 2.3863 -7.95139e-016 0 7.95139e-016 -2.09559 0.65999 -0.38939 1.19271e-015 -3.18055e-015 7.95139e-016 -5.0395 -0.089997 2.49707 -3.97569e-016 0 -7.95139e-016 -3.7921 -1.552 1.4806 -7.95139e-016 0 7.95139e-016 -4.9141 -1.269 0.35915 -3.97569e-016 0 -7.95139e-016 -3.1477 -1.685 0.84623 -7.95139e-016 0 7.95139e-016 8.367 -8.2066 0.59823 -2.19529 -1.16582 6.82411 2.19232 -43.463 -0.493181 -0.912048 8.62763 -0.701788 0.733257 -45.8593 -2.64513 4.81285 -6.36026 0.229717 -8.367 -8.2066 0.59823 -0.245764 -0.771433 -7.71216 -2.19233 -43.463 -0.493108 0.894965 6.09608 0.850831 -0.733256 -45.8593 -2.64514 -15.2151 -0.420517 0.0569969 
-0.20441 115.001 -1.89326 0.964791 -1.99681 -3.75528 2.22045e-016 -1.186 -1.50178 -0.208002 1.71918 0.374111 2.22045e-016 9.964 0.21338 -0.427524 3.43696 0.754983 2.22045e-016 13.134 -3.25729 -0.427526 3.43697 0.754987 0 21.686 -1.69049 4.14712 54.9945 0.419269 0 11.838 -0.12368 0.415662 -0.429328 3.72737 1.70688 20.075 5.0056 -32.5679 2.32118 -2.51318 13.6458 -0.047012 -4.84902 -39.2306 27.3494 -10.967 28.3255 -0.975903 2.28883 -8.882 -18.3833 13.7511 22.1583 -0.530035 10.8316 -7.27743 3.96096 -3.8159 0.785995 0.111999 2.58168 8.82781e-032 -3.18055e-015 1.59028e-015 0.3601 -0.878005 4.2331 -3.53113e-031 -6.36111e-015 -3.18055e-015 0.9571 1.114 1.76948 8.82781e-032 -3.18055e-015 1.59028e-015 4.1246 0.487 4.1451 -3.53113e-031 -6.36111e-015 -3.18055e-015 3.40521 -1.45401 2.7682 -1.76556e-031 -6.36111e-015 -1.59028e-015 5.6954 0.209991 2.1184 -3.53113e-031 -6.36111e-015 -3.18055e-015 3.9766 -1.53999 2.3863 -1.76556e-031 -6.36111e-015 -1.59028e-015 2.09559 0.65999 -0.38939 8.82781e-032 -3.18055e-015 1.59028e-015 5.0395 -0.089997 2.49707 -3.53113e-031 -6.36111e-015 -3.18055e-015 3.7921 -1.552 1.4806 -1.76556e-031 -6.36111e-015 -1.59028e-015 4.9141 -1.269 0.35915 -3.53113e-031 -6.36111e-015 -3.18055e-015 3.1477 -1.685 0.84623 -1.76556e-031 -6.36111e-015 -1.59028e-015 -1.70688 20.075 5.0056 17.8945 3.49092 10.6729 -13.6458 -0.047012 -4.84902 55.6519 16.6855 3.82342 -28.3255 -0.975903 2.28883 3.70621 -1.57133 -9.78322 -22.1583 -0.530036 10.8316 1.5315 0.836008 4.4819 -0.785995 0.111999 2.58168 3.97569e-016 -9.54166e-015 -0 -0.3601 -0.878005 4.2331 1.98785e-015 -1.59028e-014 2.38542e-015 -0.9571 1.114 1.76948 3.97569e-016 -9.54166e-015 -0 -4.1246 0.487 4.1451 1.98785e-015 -1.59028e-014 2.38542e-015 -3.40521 -1.45401 2.7682 3.18055e-015 -6.36111e-015 -0 -5.6954 0.209991 2.1184 1.98785e-015 -1.59028e-014 2.38542e-015 -3.9766 -1.53999 2.3863 3.18055e-015 -6.36111e-015 -0 -2.09559 0.65999 -0.38939 3.97569e-016 -9.54166e-015 -0 -5.0395 -0.089997 2.49707 1.98785e-015 -1.59028e-014 2.38542e-015 -3.7921 -1.552 1.4806 3.18055e-015 -6.36111e-015 -0 -4.9141 -1.269 0.35915 1.98785e-015 -1.59028e-014 2.38542e-015 -3.1477 -1.685 0.84623 3.18055e-015 -6.36111e-015 -0 8.367 -8.2066 0.59823 -2.03808 -1.82846 6.90476 2.19232 -43.463 -0.493181 -1.07083 8.87722 -0.805051 0.733257 -45.8593 -2.64513 5.22655 -6.07915 0.241535 -8.367 -8.2066 0.59823 -0.111929 -1.28329 -7.50683 -2.19233 -43.463 -0.493108 0.894704 6.08364 1.10659 -0.733256 -45.8593 -2.64514 -15.6223 0.166833 0.135333 
-0.265131 115.006 -2.09291 1.04713 -1.00863 -3.77507 2.22045e-016 -1.186 -1.50178 -0.547721 1.5092 0.682938 0 9.964 0.21338 -1.11399 3.01169 1.381 0 13.134 -3.25729 -1.11399 3.01169 1.381 0 21.686 -1.69049 13.2343 55.1875 -6.79493 1.77636e-015 11.838 -0.12368 -2.29038 1.76927 3.61767 1.70688 20.075 5.0056 -28.3729 2.482 -3.68102 13.6458 -0.047012 -4.84902 -42.6604 26.0335 -11.2772 28.3255 -0.975903 2.28883 -8.06184 -16.9166 15.7401 22.1583 -0.530035 10.8316 -7.24994 3.94025 -3.74638 0.785995 0.111999 2.58168 7.95139e-016 3.18055e-015 -3.18055e-015 0.3601 -0.878005 4.2331 -8.82781e-032 -3.18055e-015 -1.59028e-015 0.9571 1.114 1.76948 7.95139e-016 3.18055e-015 -3.18055e-015 4.1246 0.487 4.1451 -8.82781e-032 -3.18055e-015 -1.59028e-015 3.40521 -1.45401 2.7682 -7.95139e-016 3.18055e-015 -0 5.6954 0.209991 2.1184 -8.82781e-032 -3.18055e-015 -1.59028e-015 3.9766 -1.53999 2.3863 -7.95139e-016 3.18055e-015 -0 2.09559 0.65999 -0.38939 7.95139e-016 3.18055e-015 -3.18055e-015 5.0395 -0.089997 2.49707 -8.82781e-032 -3.18055e-015 -1.59028e-015 3.7921 -1.552 1.4806 -7.95139e-016 3.18055e-015 -0 4.9141 -1.269 0.35915 -8.82781e-032 -3.18055e-015 -1.59028e-015 3.1477 -1.685 0.84623 -7.95139e-016 3.18055e-015 -0 -1.70688 20.075 5.0056 20.6236 3.55459 9.57398 -13.6458 -0.047012 -4.84902 54.549 15.8132 3.08287 -28.3255 -0.975903 2.28883 2.64869 1.12064 -9.30205 -22.1583 -0.530036 10.8316 2.54454 1.37787 4.04707 -0.785995 0.111999 2.58168 -2.38542e-015 0 7.95139e-016 -0.3601 -0.878005 4.2331 -1.59028e-015 3.18055e-015 -7.95139e-016 -0.9571 1.114 1.76948 -2.38542e-015 0 7.95139e-016 -4.1246 0.487 4.1451 -1.59028e-015 3.18055e-015 -7.95139e-016 -3.40521 -1.45401 2.7682 -1.59028e-015 0 -0 -5.6954 0.209991 2.1184 -1.59028e-015 3.18055e-015 -7.95139e-016 -3.9766 -1.53999 2.3863 -1.59028e-015 0 -0 -2.09559 0.65999 -0.38939 -2.38542e-015 0 7.95139e-016 -5.0395 -0.089997 2.49707 -1.59028e-015 3.18055e-015 -7.95139e-016 -3.7921 -1.552 1.4806 -1.59028e-015 0 -0 -4.9141 -1.269 0.35915 -1.59028e-015 3.18055e-015 -7.95139e-016 -3.1477 -1.685 0.84623 -1.59028e-015 0 -0 8.367 -8.2066 0.59823 -1.99034 -3.19303 6.69568 2.19232 -43.463 -0.493181 -1.07545 9.24737 -0.53528 0.733257 -45.8593 -2.64513 5.1228 -6.20762 0.244082 -8.367 -8.2066 0.59823 -0.0232543 -2.54734 -7.13109 -2.19233 -43.463 -0.493108 0.743654 6.19713 0.209836 -0.733256 -45.8593 -2.64514 -15.2304 -0.315601 0.06976 
